<?xml version="1.0"?>
<svg xmlns="http://www.w3.org/2000/svg" xmlns:xlink="http://www.w3.org/1999/xlink" width="749.67666637" height="522.6665360000001" font-family="Consolas, Menlo, &apos;Bitstream Vera Sans Mono&apos;, monospace, &apos;Powerline Symbols&apos;" font-size="14px">
  <style>.br { font-weight: bold }
    .fa { fill-opacity: 0.5 }
    .it { font-style: italic }
    .un { text-decoration: underline }

text {
		font-size-adjust: ch-width 0.6;
		font-variant-ligatures: none;
	}</style>

  <rect width="100%" height="100%" style="fill: #121314" rx="4" ry="4"/>

  <svg x="8.42333333" y="9.333331000000001" class="default-text-fill">
    <g style="shape-rendering: optimizeSpeed">

        <rect x="16.84666666" y="373.33324000000005" width="8.42333333" height="18.666662000000002" style="fill: #d9d9d9"/>


    </g>

    <text style="fill: #cccccc">
      <tspan y="0.0">
        <tspan dy="1em" x="0.0">&gt;</tspan><tspan x="16.8 25.2 33.6 42.0 50.4 58.8" style="fill: #54e1b9">import</tspan><tspan x="75.8 84.2 92.6 101.0 109.4 117.8 126.2 134.6 143.0 151.4 159.8 168.2 176.6 185.0 193.4 201.8 210.2 218.6 227.0 235.4 243.8 252.2 260.6">{ patch, inspectBytes }</tspan><tspan x="278.0 286.4 294.8 303.2" style="fill: #54e1b9">from</tspan><tspan x="320.1 328.5 336.9 345.3 353.7 362.1 370.5 378.9 387.3 395.7 404.1 412.5 420.9 429.3 437.7 446.1 454.5 462.9 471.3 479.7 488.1" style="fill: #4ebf22">&apos;@li/custom-inspects&apos;</tspan>
      </tspan><tspan y="37.333324000000005">
        <tspan dy="1em" x="0.0 8.4 16.8 25.2 33.6 42.0 50.4 58.8 67.2" style="fill: #4d4d4d">undefined</tspan>
      </tspan><tspan y="55.99998600000001">
        <tspan dy="1em" x="0.0">&gt;</tspan><tspan x="16.8 25.2 33.6 42.0 50.4" style="fill: #26b0d7">patch</tspan><tspan x="59.0 67.4 75.8 84.2 92.6 101.0 109.4 117.8 126.2 134.6 143.0 151.4 159.8 168.2 176.6 185.0 193.4 201.8 210.2 218.6 227.0 235.4 243.8 252.2 260.6 269.0 277.4 285.8 294.2 302.6 311.0 319.4 327.8 336.2 344.6 353.0">(Uint8Array.prototype, inspectBytes)</tspan>
      </tspan><tspan y="93.33331000000001">
        <tspan dy="1em" x="0.0 8.4 16.8">{ [</tspan><tspan x="25.3 33.7 42.1 50.5 58.9 67.3 75.7 84.1 92.5 100.9 109.3 117.7 126.1 134.5 142.9 151.3 159.7 168.1 176.5 184.9 193.3 201.7" style="fill: #4ebf22">Symbol(Symbol.dispose)</tspan><tspan x="210.6 219.0">]:</tspan><tspan x="235.9 244.3 252.7 261.1 269.5 277.9 286.3 294.7 303.1 311.5 319.9 328.3 336.7 345.1 353.5 361.9 370.3 378.7 387.1 395.5 403.9 412.3 420.7 429.1 437.5 445.9 454.3 462.7" style="fill: #54e1b9">[Function: [Symbol.dispose]]</tspan><tspan x="480.1">}</tspan>
      </tspan><tspan y="111.99997200000001">
        <tspan dy="1em" x="0.0 8.4 16.8 25.2 33.6 42.0 50.4 58.8 67.2 75.6">&gt; console.</tspan><tspan x="84.2 92.6 101.0 109.4" style="fill: #26b0d7">info</tspan><tspan x="117.9">(</tspan><tspan x="126.3 134.7 143.1 151.5 159.9" style="fill: #54e1b9">await</tspan><tspan x="176.9 185.3 193.7 202.1 210.5">Deno.</tspan><tspan x="219.0 227.4 235.8 244.2 252.6 261.0 269.4 277.8" style="fill: #26b0d7">readFile</tspan><tspan x="286.4">(</tspan><tspan x="294.8 303.2 311.6 320.0 328.4 336.8 345.2 353.6 362.0 370.4 378.8 387.2 395.6 404.0 412.4 420.8 429.2 437.6 446.0" style="fill: #4ebf22">&apos;./img/Example.jpg&apos;</tspan><tspan x="454.9 463.3">))</tspan>
      </tspan><tspan y="149.33329600000002">
        <tspan dy="1em" x="0.0 8.4 16.8 25.2 33.6 42.0 50.4 58.8 67.2 75.6 84.0 92.4 100.8 109.2 117.6 126.0 134.4 142.8 151.2">Uint8Array(25303) [</tspan>
      </tspan><tspan y="167.99995800000002">
        <tspan dy="1em" x="16.8 25.2" class="fa">##</tspan><tspan x="42.1" class="fa">x</tspan><tspan x="50.5" class="br">0</tspan><tspan x="67.4" class="fa">x</tspan><tspan x="75.8" class="br">1</tspan><tspan x="92.7" class="fa">x</tspan><tspan x="101.1" class="br">2</tspan><tspan x="117.9" class="fa">x</tspan><tspan x="126.3" class="br">3</tspan><tspan x="143.2" class="fa">x</tspan><tspan x="151.6" class="br">4</tspan><tspan x="168.5" class="fa">x</tspan><tspan x="176.9" class="br">5</tspan><tspan x="193.7" class="fa">x</tspan><tspan x="202.2" class="br">6</tspan><tspan x="219.0" class="fa">x</tspan><tspan x="227.4" class="br">7</tspan><tspan x="244.3" class="fa">x</tspan><tspan x="252.7" class="br">8</tspan><tspan x="269.5" class="fa">x</tspan><tspan x="278.0" class="br">9</tspan><tspan x="294.8" class="fa">x</tspan><tspan x="303.2" class="br">a</tspan><tspan x="320.1" class="fa">x</tspan><tspan x="328.5" class="br">b</tspan><tspan x="345.4" class="fa">x</tspan><tspan x="353.8" class="br">c</tspan><tspan x="370.6" class="fa">x</tspan><tspan x="379.0" class="br">d</tspan><tspan x="395.9" class="fa">x</tspan><tspan x="404.3" class="br">e</tspan><tspan x="421.2" class="fa">x</tspan><tspan x="429.6" class="br">f</tspan>
      </tspan><tspan y="186.66662000000002">
        <tspan dy="1em" x="16.8" class="br">0</tspan><tspan x="25.3" class="fa">x</tspan><tspan x="42.1 50.5 58.9 67.3 75.7 84.1 92.5 100.9 109.3 117.7 126.1" style="fill: #ddaf3c">ff d8 ff e0</tspan><tspan x="143.2 151.6" class="fa" style="fill: #ddaf3c">00</tspan><tspan x="168.5 176.9 185.3 193.7 202.1 210.5 218.9 227.3 235.7 244.1 252.5 260.9 269.3 277.7" style="fill: #ddaf3c">10 4a 46 49 46</tspan><tspan x="294.8 303.2" class="fa" style="fill: #ddaf3c">00</tspan><tspan x="320.1 328.5 336.9 345.3 353.7 362.1 370.5 378.9" style="fill: #ddaf3c">01 01 01</tspan><tspan x="395.9 404.3" class="fa" style="fill: #ddaf3c">00</tspan><tspan x="421.2 429.6" style="fill: #ddaf3c">48</tspan><tspan x="446.4 454.8 463.2 471.6 480.0 488.4" class="fa" style="fill: #4ebf22">......</tspan><tspan x="497.0 505.4 513.8 522.2" style="fill: #4ebf22">JFIF</tspan><tspan x="530.7 539.1 547.5 555.9 564.3" class="fa" style="fill: #4ebf22">.....</tspan><tspan x="572.8" style="fill: #4ebf22">H</tspan>
      </tspan><tspan y="205.33328200000003">
        <tspan dy="1em" x="16.8" class="br">1</tspan><tspan x="25.3" class="fa">x</tspan><tspan x="42.1 50.5" class="fa" style="fill: #ddaf3c">00</tspan><tspan x="67.4 75.8" style="fill: #ddaf3c">48</tspan><tspan x="92.7 101.1" class="fa" style="fill: #ddaf3c">00</tspan><tspan x="117.9 126.3" class="fa" style="fill: #ddaf3c">00</tspan><tspan x="143.2 151.6 160.0 168.4 176.8" style="fill: #ddaf3c">ff fe</tspan><tspan x="193.7 202.1" class="fa" style="fill: #ddaf3c">00</tspan><tspan x="219.0 227.4 235.8 244.2 252.6 261.0 269.4 277.8 286.2 294.6 303.0 311.4 319.8 328.2 336.6 345.0 353.4 361.8 370.2 378.6 387.0 395.4 403.8 412.2 420.6 429.0" style="fill: #ddaf3c">24 43 72 65 61 74 65 64 20</tspan><tspan x="446.4" class="fa" style="fill: #4ebf22">.</tspan><tspan x="454.9" style="fill: #4ebf22">H</tspan><tspan x="463.3 471.7 480.1 488.5 496.9" class="fa" style="fill: #4ebf22">.....</tspan><tspan x="505.4 513.8 522.2 530.6 539.0 547.4 555.8 564.2" style="fill: #4ebf22">&#x24;Created</tspan>
      </tspan><tspan y="223.99994400000003">
        <tspan dy="1em" x="16.8" class="br">2</tspan><tspan x="25.3" class="fa">x</tspan><tspan x="42.1 50.5 58.9 67.3 75.7 84.1 92.5 100.9 109.3 117.7 126.1 134.5 142.9 151.3 159.7 168.1 176.5 184.9 193.3 201.7 210.1 218.5 226.9 235.3 243.7 252.1 260.5 268.9 277.3 285.7 294.1 302.5 310.9 319.3 327.7 336.1 344.5 352.9 361.3 369.7 378.1 386.5 394.9 403.3 411.7 420.1 428.5" style="fill: #ddaf3c">62 79 20 43 65 6e 74 72 78 2c 20 63 72 6f 70 70</tspan><tspan x="446.4 454.8 463.2 471.6 480.0 488.4 496.8 505.2 513.6 522.0 530.4 538.8 547.2 555.6 564.0 572.4" style="fill: #4ebf22">by Centrx, cropp</tspan>
      </tspan><tspan y="242.66660600000003">
        <tspan dy="1em" x="16.8" class="br">3</tspan><tspan x="25.3" class="fa">x</tspan><tspan x="42.1 50.5 58.9 67.3 75.7 84.1 92.5 100.9 109.3 117.7 126.1 134.5 142.9 151.3 159.7 168.1 176.5 184.9 193.3 201.7 210.1 218.5 226.9 235.3 243.7 252.1 260.5 268.9 277.3 285.7 294.1 302.5 310.9 319.3 327.7" style="fill: #ddaf3c">65 64 20 62 79 20 4a 50 78 47 ff db</tspan><tspan x="345.4 353.8" class="fa" style="fill: #ddaf3c">00</tspan><tspan x="370.6 379.0" style="fill: #ddaf3c">43</tspan><tspan x="395.9 404.3" class="fa" style="fill: #ddaf3c">00</tspan><tspan x="421.2 429.6" style="fill: #ddaf3c">06</tspan><tspan x="446.4 454.8 463.2 471.6 480.0 488.4 496.8 505.2 513.6 522.0" style="fill: #4ebf22">ed by JPxG</tspan><tspan x="530.7 539.1 547.5" class="fa" style="fill: #4ebf22">...</tspan><tspan x="555.9" style="fill: #4ebf22">C</tspan><tspan x="564.4 572.8" class="fa" style="fill: #4ebf22">..</tspan>
      </tspan><tspan y="261.33326800000003">
        <tspan dy="1em" x="16.8" class="br">4</tspan><tspan x="25.3" class="fa">x</tspan><tspan x="42.1 50.5 58.9 67.3 75.7 84.1 92.5 100.9 109.3 117.7 126.1 134.5 142.9 151.3 159.7 168.1 176.5 184.9 193.3 201.7 210.1 218.5 226.9 235.3 243.7 252.1 260.5 268.9 277.3 285.7 294.1 302.5 310.9 319.3 327.7 336.1 344.5 352.9 361.3 369.7 378.1 386.5 394.9 403.3 411.7 420.1 428.5" style="fill: #ddaf3c">04 05 06 05 04 06 06 05 06 07 07 06 08 0a 10 0a</tspan><tspan x="446.4 454.8 463.2 471.6 480.0 488.4 496.8 505.2 513.6 522.0 530.4 538.8 547.2 555.6 564.0 572.4" class="fa" style="fill: #4ebf22">................</tspan>
      </tspan><tspan y="279.99993">
        <tspan dy="1em" x="16.8" class="br">5</tspan><tspan x="25.3" class="fa">x</tspan><tspan x="42.1 50.5 58.9 67.3 75.7 84.1 92.5 100.9 109.3 117.7 126.1 134.5 142.9 151.3 159.7 168.1 176.5 184.9 193.3 201.7 210.1 218.5 226.9 235.3 243.7 252.1 260.5 268.9 277.3 285.7 294.1 302.5 310.9 319.3 327.7 336.1 344.5 352.9 361.3 369.7 378.1 386.5 394.9 403.3 411.7 420.1 428.5" style="fill: #ddaf3c">0a 09 09 0a 14 0e 0f 0c 10 17 14 18 18 17 14 16</tspan><tspan x="446.4 454.8 463.2 471.6 480.0 488.4 496.8 505.2 513.6 522.0 530.4 538.8 547.2 555.6 564.0 572.4" class="fa" style="fill: #4ebf22">................</tspan>
      </tspan><tspan y="298.66659200000004">
        <tspan dy="1em" x="16.8" class="br">6</tspan><tspan x="25.3" class="fa">x</tspan><tspan x="42.1 50.5 58.9 67.3 75.7 84.1 92.5 100.9 109.3 117.7 126.1 134.5 142.9 151.3 159.7 168.1 176.5 184.9 193.3 201.7 210.1 218.5 226.9 235.3 243.7 252.1 260.5 268.9 277.3 285.7 294.1 302.5 310.9 319.3 327.7 336.1 344.5 352.9 361.3 369.7 378.1 386.5 394.9 403.3 411.7 420.1 428.5" style="fill: #ddaf3c">16 1a 1d 25 1f 1a 1b 23 1c 16 16 20 2c 20 23 26</tspan><tspan x="446.4 454.8 463.2" class="fa" style="fill: #4ebf22">...</tspan><tspan x="471.7" style="fill: #4ebf22">%</tspan><tspan x="480.1 488.5 496.9" class="fa" style="fill: #4ebf22">...</tspan><tspan x="505.4" style="fill: #4ebf22">#</tspan><tspan x="513.8 522.2 530.6" class="fa" style="fill: #4ebf22">...</tspan><tspan x="547.5 555.9 564.3 572.7" style="fill: #4ebf22">, #&amp;</tspan>
      </tspan><tspan y="317.333254">
        <tspan dy="1em" x="16.8 25.2 33.6 42.0 50.4 58.8 67.2 75.6 84.0 92.4 100.8 109.2 117.6 126.0 134.4 142.8 151.2 159.6 168.0 176.4">... 25191 more bytes</tspan>
      </tspan><tspan y="335.99991600000004">
        <tspan dy="1em" x="0.0">]</tspan>
      </tspan><tspan y="354.666578">
        <tspan dy="1em" x="0.0 8.4 16.8 25.2 33.6 42.0 50.4 58.8 67.2" style="fill: #4d4d4d">undefined</tspan>
      </tspan><tspan y="373.33324000000005">
        <tspan dy="1em" x="0.0">&gt;</tspan>
      </tspan>
    </text>
  </svg>

  <g transform="translate(-40 -40)">
    <svg x="50%" y="50%" width="80" height="80">
      <svg version="1.1" xmlns="http://www.w3.org/2000/svg" viewBox="0 0 1000.0 1000.0" style="filter: drop-shadow(0px 0px 5px rgba(0, 0, 0, 0.4))">
  <defs>
    <mask id="small-triangle-mask">
      <rect width="100%" height="100%" fill="white"/>
      <polygon points="700.0 500.0, 400.00000000000006 326.7949192431122, 399.9999999999999 673.2050807568877" fill="black">
      </polygon>
    </mask>
  </defs>
  <polygon points="1000.0 500.0, 250.0000000000001 66.98729810778059, 249.99999999999977 933.0127018922192" mask="url(#small-triangle-mask)" fill="white">
  </polygon>
  <polyline points="673.2050807568878 400.0, 326.7949192431123 600.0" stroke="white" stroke-width="90">
  </polyline>
</svg>
    </svg>
  </g>
</svg>
